<mxfile host="app.diagrams.net" modified="2023-10-09T08:41:18.454Z" agent="Mozilla/5.0 (X11; Linux x86_64; rv:109.0) Gecko/20100101 Firefox/117.0" etag="DOrLKS8t7j2gn1gt5kaa" version="21.8.2" type="device">
  <diagram name="Page-1" id="xe6lsm4ZW3V84GYPWG56">
    <mxGraphModel dx="2284" dy="726" grid="1" gridSize="10" guides="1" tooltips="1" connect="1" arrows="1" fold="1" page="1" pageScale="1" pageWidth="850" pageHeight="1100" math="0" shadow="0">
      <root>
        <mxCell id="0" />
        <mxCell id="1" parent="0" />
        <mxCell id="gvi6fdJPZBPUJMMH37WB-49" value="" style="endArrow=classic;html=1;rounded=0;entryX=0.5;entryY=0;entryDx=0;entryDy=0;" edge="1" source="gvi6fdJPZBPUJMMH37WB-34" target="gvi6fdJPZBPUJMMH37WB-56" parent="1">
          <mxGeometry width="50" height="50" relative="1" as="geometry">
            <mxPoint x="155" y="420" as="sourcePoint" />
            <mxPoint x="205" y="370" as="targetPoint" />
          </mxGeometry>
        </mxCell>
        <mxCell id="gvi6fdJPZBPUJMMH37WB-53" value="Thread stack" style="swimlane;whiteSpace=wrap;html=1;" vertex="1" parent="1">
          <mxGeometry x="-160" y="40" width="160" height="390" as="geometry" />
        </mxCell>
        <mxCell id="gvi6fdJPZBPUJMMH37WB-1" value="FunctionOne" style="shape=table;startSize=30;container=1;collapsible=0;childLayout=tableLayout;fixedRows=1;rowLines=0;fontStyle=0;strokeColor=default;fontSize=16;" vertex="1" parent="gvi6fdJPZBPUJMMH37WB-53">
          <mxGeometry x="20" y="40" width="120" height="90" as="geometry" />
        </mxCell>
        <mxCell id="gvi6fdJPZBPUJMMH37WB-2" value="" style="shape=tableRow;horizontal=0;startSize=0;swimlaneHead=0;swimlaneBody=0;top=0;left=0;bottom=0;right=0;collapsible=0;dropTarget=0;fillColor=none;points=[[0,0.5],[1,0.5]];portConstraint=eastwest;strokeColor=inherit;fontSize=16;" vertex="1" parent="gvi6fdJPZBPUJMMH37WB-1">
          <mxGeometry y="30" width="120" height="30" as="geometry" />
        </mxCell>
        <mxCell id="gvi6fdJPZBPUJMMH37WB-3" value="1" style="shape=partialRectangle;html=1;whiteSpace=wrap;connectable=0;fillColor=none;top=0;left=0;bottom=0;right=0;overflow=hidden;pointerEvents=1;strokeColor=inherit;fontSize=16;" vertex="1" parent="gvi6fdJPZBPUJMMH37WB-2">
          <mxGeometry width="27" height="30" as="geometry">
            <mxRectangle width="27" height="30" as="alternateBounds" />
          </mxGeometry>
        </mxCell>
        <mxCell id="gvi6fdJPZBPUJMMH37WB-4" value="var1" style="shape=partialRectangle;html=1;whiteSpace=wrap;connectable=0;fillColor=none;top=0;left=0;bottom=0;right=0;align=left;spacingLeft=6;overflow=hidden;strokeColor=inherit;fontSize=16;" vertex="1" parent="gvi6fdJPZBPUJMMH37WB-2">
          <mxGeometry x="27" width="93" height="30" as="geometry">
            <mxRectangle width="93" height="30" as="alternateBounds" />
          </mxGeometry>
        </mxCell>
        <mxCell id="gvi6fdJPZBPUJMMH37WB-5" value="" style="shape=tableRow;horizontal=0;startSize=0;swimlaneHead=0;swimlaneBody=0;top=0;left=0;bottom=0;right=0;collapsible=0;dropTarget=0;fillColor=none;points=[[0,0.5],[1,0.5]];portConstraint=eastwest;strokeColor=inherit;fontSize=16;" vertex="1" parent="gvi6fdJPZBPUJMMH37WB-1">
          <mxGeometry y="60" width="120" height="30" as="geometry" />
        </mxCell>
        <mxCell id="gvi6fdJPZBPUJMMH37WB-6" value="2" style="shape=partialRectangle;html=1;whiteSpace=wrap;connectable=0;fillColor=none;top=0;left=0;bottom=0;right=0;overflow=hidden;strokeColor=inherit;fontSize=16;" vertex="1" parent="gvi6fdJPZBPUJMMH37WB-5">
          <mxGeometry width="27" height="30" as="geometry">
            <mxRectangle width="27" height="30" as="alternateBounds" />
          </mxGeometry>
        </mxCell>
        <mxCell id="gvi6fdJPZBPUJMMH37WB-7" value="var2" style="shape=partialRectangle;html=1;whiteSpace=wrap;connectable=0;fillColor=none;top=0;left=0;bottom=0;right=0;align=left;spacingLeft=6;overflow=hidden;strokeColor=inherit;fontSize=16;" vertex="1" parent="gvi6fdJPZBPUJMMH37WB-5">
          <mxGeometry x="27" width="93" height="30" as="geometry">
            <mxRectangle width="93" height="30" as="alternateBounds" />
          </mxGeometry>
        </mxCell>
        <mxCell id="gvi6fdJPZBPUJMMH37WB-11" value="FunctionTwo" style="shape=table;startSize=30;container=1;collapsible=0;childLayout=tableLayout;fixedRows=1;rowLines=0;fontStyle=0;strokeColor=default;fontSize=16;" vertex="1" parent="gvi6fdJPZBPUJMMH37WB-53">
          <mxGeometry x="20" y="160" width="120" height="90" as="geometry" />
        </mxCell>
        <mxCell id="gvi6fdJPZBPUJMMH37WB-12" value="" style="shape=tableRow;horizontal=0;startSize=0;swimlaneHead=0;swimlaneBody=0;top=0;left=0;bottom=0;right=0;collapsible=0;dropTarget=0;fillColor=none;points=[[0,0.5],[1,0.5]];portConstraint=eastwest;strokeColor=inherit;fontSize=16;" vertex="1" parent="gvi6fdJPZBPUJMMH37WB-11">
          <mxGeometry y="30" width="120" height="30" as="geometry" />
        </mxCell>
        <mxCell id="gvi6fdJPZBPUJMMH37WB-13" value="1" style="shape=partialRectangle;html=1;whiteSpace=wrap;connectable=0;fillColor=none;top=0;left=0;bottom=0;right=0;overflow=hidden;pointerEvents=1;strokeColor=inherit;fontSize=16;" vertex="1" parent="gvi6fdJPZBPUJMMH37WB-12">
          <mxGeometry width="27" height="30" as="geometry">
            <mxRectangle width="27" height="30" as="alternateBounds" />
          </mxGeometry>
        </mxCell>
        <mxCell id="gvi6fdJPZBPUJMMH37WB-14" value="var1" style="shape=partialRectangle;html=1;whiteSpace=wrap;connectable=0;fillColor=none;top=0;left=0;bottom=0;right=0;align=left;spacingLeft=6;overflow=hidden;strokeColor=inherit;fontSize=16;" vertex="1" parent="gvi6fdJPZBPUJMMH37WB-12">
          <mxGeometry x="27" width="93" height="30" as="geometry">
            <mxRectangle width="93" height="30" as="alternateBounds" />
          </mxGeometry>
        </mxCell>
        <mxCell id="gvi6fdJPZBPUJMMH37WB-15" value="" style="shape=tableRow;horizontal=0;startSize=0;swimlaneHead=0;swimlaneBody=0;top=0;left=0;bottom=0;right=0;collapsible=0;dropTarget=0;fillColor=none;points=[[0,0.5],[1,0.5]];portConstraint=eastwest;strokeColor=inherit;fontSize=16;" vertex="1" parent="gvi6fdJPZBPUJMMH37WB-11">
          <mxGeometry y="60" width="120" height="30" as="geometry" />
        </mxCell>
        <mxCell id="gvi6fdJPZBPUJMMH37WB-16" value="2" style="shape=partialRectangle;html=1;whiteSpace=wrap;connectable=0;fillColor=none;top=0;left=0;bottom=0;right=0;overflow=hidden;strokeColor=inherit;fontSize=16;" vertex="1" parent="gvi6fdJPZBPUJMMH37WB-15">
          <mxGeometry width="27" height="30" as="geometry">
            <mxRectangle width="27" height="30" as="alternateBounds" />
          </mxGeometry>
        </mxCell>
        <mxCell id="gvi6fdJPZBPUJMMH37WB-17" value="var2" style="shape=partialRectangle;html=1;whiteSpace=wrap;connectable=0;fillColor=none;top=0;left=0;bottom=0;right=0;align=left;spacingLeft=6;overflow=hidden;strokeColor=inherit;fontSize=16;" vertex="1" parent="gvi6fdJPZBPUJMMH37WB-15">
          <mxGeometry x="27" width="93" height="30" as="geometry">
            <mxRectangle width="93" height="30" as="alternateBounds" />
          </mxGeometry>
        </mxCell>
        <mxCell id="gvi6fdJPZBPUJMMH37WB-18" value="FunctionThree" style="shape=table;startSize=30;container=1;collapsible=0;childLayout=tableLayout;fixedRows=1;rowLines=0;fontStyle=0;strokeColor=default;fontSize=16;" vertex="1" parent="gvi6fdJPZBPUJMMH37WB-53">
          <mxGeometry x="20" y="280" width="120" height="90" as="geometry" />
        </mxCell>
        <mxCell id="gvi6fdJPZBPUJMMH37WB-19" value="" style="shape=tableRow;horizontal=0;startSize=0;swimlaneHead=0;swimlaneBody=0;top=0;left=0;bottom=0;right=0;collapsible=0;dropTarget=0;fillColor=none;points=[[0,0.5],[1,0.5]];portConstraint=eastwest;strokeColor=inherit;fontSize=16;" vertex="1" parent="gvi6fdJPZBPUJMMH37WB-18">
          <mxGeometry y="30" width="120" height="30" as="geometry" />
        </mxCell>
        <mxCell id="gvi6fdJPZBPUJMMH37WB-20" value="1" style="shape=partialRectangle;html=1;whiteSpace=wrap;connectable=0;fillColor=none;top=0;left=0;bottom=0;right=0;overflow=hidden;pointerEvents=1;strokeColor=inherit;fontSize=16;" vertex="1" parent="gvi6fdJPZBPUJMMH37WB-19">
          <mxGeometry width="27" height="30" as="geometry">
            <mxRectangle width="27" height="30" as="alternateBounds" />
          </mxGeometry>
        </mxCell>
        <mxCell id="gvi6fdJPZBPUJMMH37WB-21" value="var1" style="shape=partialRectangle;html=1;whiteSpace=wrap;connectable=0;fillColor=none;top=0;left=0;bottom=0;right=0;align=left;spacingLeft=6;overflow=hidden;strokeColor=inherit;fontSize=16;" vertex="1" parent="gvi6fdJPZBPUJMMH37WB-19">
          <mxGeometry x="27" width="93" height="30" as="geometry">
            <mxRectangle width="93" height="30" as="alternateBounds" />
          </mxGeometry>
        </mxCell>
        <mxCell id="gvi6fdJPZBPUJMMH37WB-22" value="" style="shape=tableRow;horizontal=0;startSize=0;swimlaneHead=0;swimlaneBody=0;top=0;left=0;bottom=0;right=0;collapsible=0;dropTarget=0;fillColor=none;points=[[0,0.5],[1,0.5]];portConstraint=eastwest;strokeColor=inherit;fontSize=16;" vertex="1" parent="gvi6fdJPZBPUJMMH37WB-18">
          <mxGeometry y="60" width="120" height="30" as="geometry" />
        </mxCell>
        <mxCell id="gvi6fdJPZBPUJMMH37WB-23" value="2" style="shape=partialRectangle;html=1;whiteSpace=wrap;connectable=0;fillColor=none;top=0;left=0;bottom=0;right=0;overflow=hidden;strokeColor=inherit;fontSize=16;" vertex="1" parent="gvi6fdJPZBPUJMMH37WB-22">
          <mxGeometry width="27" height="30" as="geometry">
            <mxRectangle width="27" height="30" as="alternateBounds" />
          </mxGeometry>
        </mxCell>
        <mxCell id="gvi6fdJPZBPUJMMH37WB-24" value="var2" style="shape=partialRectangle;html=1;whiteSpace=wrap;connectable=0;fillColor=none;top=0;left=0;bottom=0;right=0;align=left;spacingLeft=6;overflow=hidden;strokeColor=inherit;fontSize=16;" vertex="1" parent="gvi6fdJPZBPUJMMH37WB-22">
          <mxGeometry x="27" width="93" height="30" as="geometry">
            <mxRectangle width="93" height="30" as="alternateBounds" />
          </mxGeometry>
        </mxCell>
        <mxCell id="gvi6fdJPZBPUJMMH37WB-25" value="" style="endArrow=classic;html=1;rounded=0;entryX=0.5;entryY=0;entryDx=0;entryDy=0;" edge="1" parent="gvi6fdJPZBPUJMMH37WB-53" source="gvi6fdJPZBPUJMMH37WB-1" target="gvi6fdJPZBPUJMMH37WB-11">
          <mxGeometry width="50" height="50" relative="1" as="geometry">
            <mxPoint x="-70" y="230" as="sourcePoint" />
            <mxPoint x="-20" y="180" as="targetPoint" />
          </mxGeometry>
        </mxCell>
        <mxCell id="gvi6fdJPZBPUJMMH37WB-26" value="" style="endArrow=classic;html=1;rounded=0;" edge="1" parent="gvi6fdJPZBPUJMMH37WB-53" source="gvi6fdJPZBPUJMMH37WB-11" target="gvi6fdJPZBPUJMMH37WB-18">
          <mxGeometry width="50" height="50" relative="1" as="geometry">
            <mxPoint x="-160" y="380" as="sourcePoint" />
            <mxPoint x="-110" y="330" as="targetPoint" />
          </mxGeometry>
        </mxCell>
        <mxCell id="gvi6fdJPZBPUJMMH37WB-54" value="Thread stack" style="swimlane;whiteSpace=wrap;html=1;" vertex="1" parent="1">
          <mxGeometry x="40" y="40" width="160" height="310" as="geometry" />
        </mxCell>
        <mxCell id="gvi6fdJPZBPUJMMH37WB-27" value="FunctionOne" style="shape=table;startSize=30;container=1;collapsible=0;childLayout=tableLayout;fixedRows=1;rowLines=0;fontStyle=0;strokeColor=default;fontSize=16;" vertex="1" parent="gvi6fdJPZBPUJMMH37WB-54">
          <mxGeometry x="20" y="40" width="120" height="90" as="geometry" />
        </mxCell>
        <mxCell id="gvi6fdJPZBPUJMMH37WB-28" value="" style="shape=tableRow;horizontal=0;startSize=0;swimlaneHead=0;swimlaneBody=0;top=0;left=0;bottom=0;right=0;collapsible=0;dropTarget=0;fillColor=none;points=[[0,0.5],[1,0.5]];portConstraint=eastwest;strokeColor=inherit;fontSize=16;" vertex="1" parent="gvi6fdJPZBPUJMMH37WB-27">
          <mxGeometry y="30" width="120" height="30" as="geometry" />
        </mxCell>
        <mxCell id="gvi6fdJPZBPUJMMH37WB-29" value="1" style="shape=partialRectangle;html=1;whiteSpace=wrap;connectable=0;fillColor=none;top=0;left=0;bottom=0;right=0;overflow=hidden;pointerEvents=1;strokeColor=inherit;fontSize=16;" vertex="1" parent="gvi6fdJPZBPUJMMH37WB-28">
          <mxGeometry width="27" height="30" as="geometry">
            <mxRectangle width="27" height="30" as="alternateBounds" />
          </mxGeometry>
        </mxCell>
        <mxCell id="gvi6fdJPZBPUJMMH37WB-30" value="var1" style="shape=partialRectangle;html=1;whiteSpace=wrap;connectable=0;fillColor=none;top=0;left=0;bottom=0;right=0;align=left;spacingLeft=6;overflow=hidden;strokeColor=inherit;fontSize=16;" vertex="1" parent="gvi6fdJPZBPUJMMH37WB-28">
          <mxGeometry x="27" width="93" height="30" as="geometry">
            <mxRectangle width="93" height="30" as="alternateBounds" />
          </mxGeometry>
        </mxCell>
        <mxCell id="gvi6fdJPZBPUJMMH37WB-31" value="" style="shape=tableRow;horizontal=0;startSize=0;swimlaneHead=0;swimlaneBody=0;top=0;left=0;bottom=0;right=0;collapsible=0;dropTarget=0;fillColor=none;points=[[0,0.5],[1,0.5]];portConstraint=eastwest;strokeColor=inherit;fontSize=16;" vertex="1" parent="gvi6fdJPZBPUJMMH37WB-27">
          <mxGeometry y="60" width="120" height="30" as="geometry" />
        </mxCell>
        <mxCell id="gvi6fdJPZBPUJMMH37WB-32" value="2" style="shape=partialRectangle;html=1;whiteSpace=wrap;connectable=0;fillColor=none;top=0;left=0;bottom=0;right=0;overflow=hidden;strokeColor=inherit;fontSize=16;" vertex="1" parent="gvi6fdJPZBPUJMMH37WB-31">
          <mxGeometry width="27" height="30" as="geometry">
            <mxRectangle width="27" height="30" as="alternateBounds" />
          </mxGeometry>
        </mxCell>
        <mxCell id="gvi6fdJPZBPUJMMH37WB-33" value="var2" style="shape=partialRectangle;html=1;whiteSpace=wrap;connectable=0;fillColor=none;top=0;left=0;bottom=0;right=0;align=left;spacingLeft=6;overflow=hidden;strokeColor=inherit;fontSize=16;" vertex="1" parent="gvi6fdJPZBPUJMMH37WB-31">
          <mxGeometry x="27" width="93" height="30" as="geometry">
            <mxRectangle width="93" height="30" as="alternateBounds" />
          </mxGeometry>
        </mxCell>
        <mxCell id="gvi6fdJPZBPUJMMH37WB-41" value="FunctionThree" style="shape=table;startSize=30;container=1;collapsible=0;childLayout=tableLayout;fixedRows=1;rowLines=0;fontStyle=0;strokeColor=default;fontSize=16;" vertex="1" parent="gvi6fdJPZBPUJMMH37WB-54">
          <mxGeometry x="20" y="200" width="120" height="90" as="geometry" />
        </mxCell>
        <mxCell id="gvi6fdJPZBPUJMMH37WB-42" value="" style="shape=tableRow;horizontal=0;startSize=0;swimlaneHead=0;swimlaneBody=0;top=0;left=0;bottom=0;right=0;collapsible=0;dropTarget=0;fillColor=none;points=[[0,0.5],[1,0.5]];portConstraint=eastwest;strokeColor=inherit;fontSize=16;" vertex="1" parent="gvi6fdJPZBPUJMMH37WB-41">
          <mxGeometry y="30" width="120" height="30" as="geometry" />
        </mxCell>
        <mxCell id="gvi6fdJPZBPUJMMH37WB-43" value="1" style="shape=partialRectangle;html=1;whiteSpace=wrap;connectable=0;fillColor=none;top=0;left=0;bottom=0;right=0;overflow=hidden;pointerEvents=1;strokeColor=inherit;fontSize=16;" vertex="1" parent="gvi6fdJPZBPUJMMH37WB-42">
          <mxGeometry width="27" height="30" as="geometry">
            <mxRectangle width="27" height="30" as="alternateBounds" />
          </mxGeometry>
        </mxCell>
        <mxCell id="gvi6fdJPZBPUJMMH37WB-44" value="var1" style="shape=partialRectangle;html=1;whiteSpace=wrap;connectable=0;fillColor=none;top=0;left=0;bottom=0;right=0;align=left;spacingLeft=6;overflow=hidden;strokeColor=inherit;fontSize=16;" vertex="1" parent="gvi6fdJPZBPUJMMH37WB-42">
          <mxGeometry x="27" width="93" height="30" as="geometry">
            <mxRectangle width="93" height="30" as="alternateBounds" />
          </mxGeometry>
        </mxCell>
        <mxCell id="gvi6fdJPZBPUJMMH37WB-45" value="" style="shape=tableRow;horizontal=0;startSize=0;swimlaneHead=0;swimlaneBody=0;top=0;left=0;bottom=0;right=0;collapsible=0;dropTarget=0;fillColor=none;points=[[0,0.5],[1,0.5]];portConstraint=eastwest;strokeColor=inherit;fontSize=16;" vertex="1" parent="gvi6fdJPZBPUJMMH37WB-41">
          <mxGeometry y="60" width="120" height="30" as="geometry" />
        </mxCell>
        <mxCell id="gvi6fdJPZBPUJMMH37WB-46" value="2" style="shape=partialRectangle;html=1;whiteSpace=wrap;connectable=0;fillColor=none;top=0;left=0;bottom=0;right=0;overflow=hidden;strokeColor=inherit;fontSize=16;" vertex="1" parent="gvi6fdJPZBPUJMMH37WB-45">
          <mxGeometry width="27" height="30" as="geometry">
            <mxRectangle width="27" height="30" as="alternateBounds" />
          </mxGeometry>
        </mxCell>
        <mxCell id="gvi6fdJPZBPUJMMH37WB-47" value="var2" style="shape=partialRectangle;html=1;whiteSpace=wrap;connectable=0;fillColor=none;top=0;left=0;bottom=0;right=0;align=left;spacingLeft=6;overflow=hidden;strokeColor=inherit;fontSize=16;" vertex="1" parent="gvi6fdJPZBPUJMMH37WB-45">
          <mxGeometry x="27" width="93" height="30" as="geometry">
            <mxRectangle width="93" height="30" as="alternateBounds" />
          </mxGeometry>
        </mxCell>
        <mxCell id="gvi6fdJPZBPUJMMH37WB-55" value="Heap" style="swimlane;whiteSpace=wrap;html=1;" vertex="1" parent="1">
          <mxGeometry x="240" y="70" width="140" height="140" as="geometry" />
        </mxCell>
        <mxCell id="gvi6fdJPZBPUJMMH37WB-34" value="CoroOne" style="shape=table;startSize=30;container=1;collapsible=0;childLayout=tableLayout;fixedRows=1;rowLines=0;fontStyle=0;strokeColor=default;fontSize=16;" vertex="1" parent="gvi6fdJPZBPUJMMH37WB-55">
          <mxGeometry x="10" y="35" width="120" height="90" as="geometry" />
        </mxCell>
        <mxCell id="gvi6fdJPZBPUJMMH37WB-35" value="" style="shape=tableRow;horizontal=0;startSize=0;swimlaneHead=0;swimlaneBody=0;top=0;left=0;bottom=0;right=0;collapsible=0;dropTarget=0;fillColor=none;points=[[0,0.5],[1,0.5]];portConstraint=eastwest;strokeColor=inherit;fontSize=16;" vertex="1" parent="gvi6fdJPZBPUJMMH37WB-34">
          <mxGeometry y="30" width="120" height="30" as="geometry" />
        </mxCell>
        <mxCell id="gvi6fdJPZBPUJMMH37WB-36" value="1" style="shape=partialRectangle;html=1;whiteSpace=wrap;connectable=0;fillColor=none;top=0;left=0;bottom=0;right=0;overflow=hidden;pointerEvents=1;strokeColor=inherit;fontSize=16;" vertex="1" parent="gvi6fdJPZBPUJMMH37WB-35">
          <mxGeometry width="27" height="30" as="geometry">
            <mxRectangle width="27" height="30" as="alternateBounds" />
          </mxGeometry>
        </mxCell>
        <mxCell id="gvi6fdJPZBPUJMMH37WB-37" value="var1" style="shape=partialRectangle;html=1;whiteSpace=wrap;connectable=0;fillColor=none;top=0;left=0;bottom=0;right=0;align=left;spacingLeft=6;overflow=hidden;strokeColor=inherit;fontSize=16;" vertex="1" parent="gvi6fdJPZBPUJMMH37WB-35">
          <mxGeometry x="27" width="93" height="30" as="geometry">
            <mxRectangle width="93" height="30" as="alternateBounds" />
          </mxGeometry>
        </mxCell>
        <mxCell id="gvi6fdJPZBPUJMMH37WB-38" value="" style="shape=tableRow;horizontal=0;startSize=0;swimlaneHead=0;swimlaneBody=0;top=0;left=0;bottom=0;right=0;collapsible=0;dropTarget=0;fillColor=none;points=[[0,0.5],[1,0.5]];portConstraint=eastwest;strokeColor=inherit;fontSize=16;" vertex="1" parent="gvi6fdJPZBPUJMMH37WB-34">
          <mxGeometry y="60" width="120" height="30" as="geometry" />
        </mxCell>
        <mxCell id="gvi6fdJPZBPUJMMH37WB-39" value="2" style="shape=partialRectangle;html=1;whiteSpace=wrap;connectable=0;fillColor=none;top=0;left=0;bottom=0;right=0;overflow=hidden;strokeColor=inherit;fontSize=16;" vertex="1" parent="gvi6fdJPZBPUJMMH37WB-38">
          <mxGeometry width="27" height="30" as="geometry">
            <mxRectangle width="27" height="30" as="alternateBounds" />
          </mxGeometry>
        </mxCell>
        <mxCell id="gvi6fdJPZBPUJMMH37WB-40" value="var2" style="shape=partialRectangle;html=1;whiteSpace=wrap;connectable=0;fillColor=none;top=0;left=0;bottom=0;right=0;align=left;spacingLeft=6;overflow=hidden;strokeColor=inherit;fontSize=16;" vertex="1" parent="gvi6fdJPZBPUJMMH37WB-38">
          <mxGeometry x="27" width="93" height="30" as="geometry">
            <mxRectangle width="93" height="30" as="alternateBounds" />
          </mxGeometry>
        </mxCell>
        <mxCell id="gvi6fdJPZBPUJMMH37WB-64" value="Heap" style="swimlane;whiteSpace=wrap;html=1;" vertex="1" parent="1">
          <mxGeometry x="250" y="230" width="140" height="140" as="geometry" />
        </mxCell>
        <mxCell id="gvi6fdJPZBPUJMMH37WB-56" value="CoroTwo" style="shape=table;startSize=30;container=1;collapsible=0;childLayout=tableLayout;fixedRows=1;rowLines=0;fontStyle=0;strokeColor=default;fontSize=16;" vertex="1" parent="gvi6fdJPZBPUJMMH37WB-64">
          <mxGeometry x="10" y="40" width="120" height="90" as="geometry" />
        </mxCell>
        <mxCell id="gvi6fdJPZBPUJMMH37WB-57" value="" style="shape=tableRow;horizontal=0;startSize=0;swimlaneHead=0;swimlaneBody=0;top=0;left=0;bottom=0;right=0;collapsible=0;dropTarget=0;fillColor=none;points=[[0,0.5],[1,0.5]];portConstraint=eastwest;strokeColor=inherit;fontSize=16;" vertex="1" parent="gvi6fdJPZBPUJMMH37WB-56">
          <mxGeometry y="30" width="120" height="30" as="geometry" />
        </mxCell>
        <mxCell id="gvi6fdJPZBPUJMMH37WB-58" value="1" style="shape=partialRectangle;html=1;whiteSpace=wrap;connectable=0;fillColor=none;top=0;left=0;bottom=0;right=0;overflow=hidden;pointerEvents=1;strokeColor=inherit;fontSize=16;" vertex="1" parent="gvi6fdJPZBPUJMMH37WB-57">
          <mxGeometry width="27" height="30" as="geometry">
            <mxRectangle width="27" height="30" as="alternateBounds" />
          </mxGeometry>
        </mxCell>
        <mxCell id="gvi6fdJPZBPUJMMH37WB-59" value="var1" style="shape=partialRectangle;html=1;whiteSpace=wrap;connectable=0;fillColor=none;top=0;left=0;bottom=0;right=0;align=left;spacingLeft=6;overflow=hidden;strokeColor=inherit;fontSize=16;" vertex="1" parent="gvi6fdJPZBPUJMMH37WB-57">
          <mxGeometry x="27" width="93" height="30" as="geometry">
            <mxRectangle width="93" height="30" as="alternateBounds" />
          </mxGeometry>
        </mxCell>
        <mxCell id="gvi6fdJPZBPUJMMH37WB-60" value="" style="shape=tableRow;horizontal=0;startSize=0;swimlaneHead=0;swimlaneBody=0;top=0;left=0;bottom=0;right=0;collapsible=0;dropTarget=0;fillColor=none;points=[[0,0.5],[1,0.5]];portConstraint=eastwest;strokeColor=inherit;fontSize=16;" vertex="1" parent="gvi6fdJPZBPUJMMH37WB-56">
          <mxGeometry y="60" width="120" height="30" as="geometry" />
        </mxCell>
        <mxCell id="gvi6fdJPZBPUJMMH37WB-61" value="2" style="shape=partialRectangle;html=1;whiteSpace=wrap;connectable=0;fillColor=none;top=0;left=0;bottom=0;right=0;overflow=hidden;strokeColor=inherit;fontSize=16;" vertex="1" parent="gvi6fdJPZBPUJMMH37WB-60">
          <mxGeometry width="27" height="30" as="geometry">
            <mxRectangle width="27" height="30" as="alternateBounds" />
          </mxGeometry>
        </mxCell>
        <mxCell id="gvi6fdJPZBPUJMMH37WB-62" value="var2" style="shape=partialRectangle;html=1;whiteSpace=wrap;connectable=0;fillColor=none;top=0;left=0;bottom=0;right=0;align=left;spacingLeft=6;overflow=hidden;strokeColor=inherit;fontSize=16;" vertex="1" parent="gvi6fdJPZBPUJMMH37WB-60">
          <mxGeometry x="27" width="93" height="30" as="geometry">
            <mxRectangle width="93" height="30" as="alternateBounds" />
          </mxGeometry>
        </mxCell>
        <mxCell id="gvi6fdJPZBPUJMMH37WB-48" value="" style="endArrow=classic;html=1;rounded=0;entryX=0.5;entryY=0;entryDx=0;entryDy=0;exitX=0.5;exitY=1;exitDx=0;exitDy=0;edgeStyle=orthogonalEdgeStyle;elbow=vertical;strokeWidth=3;" edge="1" source="gvi6fdJPZBPUJMMH37WB-27" target="gvi6fdJPZBPUJMMH37WB-34" parent="1">
          <mxGeometry width="50" height="50" relative="1" as="geometry">
            <mxPoint x="245" y="270" as="sourcePoint" />
            <mxPoint x="295" y="220" as="targetPoint" />
            <Array as="points">
              <mxPoint x="120" y="190" />
              <mxPoint x="220" y="190" />
              <mxPoint x="220" y="50" />
              <mxPoint x="310" y="50" />
            </Array>
          </mxGeometry>
        </mxCell>
        <mxCell id="gvi6fdJPZBPUJMMH37WB-63" value="" style="endArrow=classic;html=1;rounded=0;entryX=0.5;entryY=0;entryDx=0;entryDy=0;exitX=0.5;exitY=1;exitDx=0;exitDy=0;edgeStyle=orthogonalEdgeStyle;elbow=vertical;strokeWidth=3;" edge="1" parent="1" source="gvi6fdJPZBPUJMMH37WB-56" target="gvi6fdJPZBPUJMMH37WB-41">
          <mxGeometry width="50" height="50" relative="1" as="geometry">
            <mxPoint x="670" y="150.98" as="sourcePoint" />
            <mxPoint x="850" y="90.98" as="targetPoint" />
            <Array as="points">
              <mxPoint x="320" y="390" />
              <mxPoint x="220" y="390" />
              <mxPoint x="220" y="210" />
              <mxPoint x="120" y="210" />
            </Array>
          </mxGeometry>
        </mxCell>
        <mxCell id="gvi6fdJPZBPUJMMH37WB-74" value="Coroutine stack" style="swimlane;whiteSpace=wrap;html=1;" vertex="1" parent="1">
          <mxGeometry x="440" y="40" width="160" height="390" as="geometry" />
        </mxCell>
        <mxCell id="gvi6fdJPZBPUJMMH37WB-75" value="FunctionOne" style="shape=table;startSize=30;container=1;collapsible=0;childLayout=tableLayout;fixedRows=1;rowLines=0;fontStyle=0;strokeColor=default;fontSize=16;" vertex="1" parent="gvi6fdJPZBPUJMMH37WB-74">
          <mxGeometry x="20" y="40" width="120" height="90" as="geometry" />
        </mxCell>
        <mxCell id="gvi6fdJPZBPUJMMH37WB-76" value="" style="shape=tableRow;horizontal=0;startSize=0;swimlaneHead=0;swimlaneBody=0;top=0;left=0;bottom=0;right=0;collapsible=0;dropTarget=0;fillColor=none;points=[[0,0.5],[1,0.5]];portConstraint=eastwest;strokeColor=inherit;fontSize=16;" vertex="1" parent="gvi6fdJPZBPUJMMH37WB-75">
          <mxGeometry y="30" width="120" height="30" as="geometry" />
        </mxCell>
        <mxCell id="gvi6fdJPZBPUJMMH37WB-77" value="1" style="shape=partialRectangle;html=1;whiteSpace=wrap;connectable=0;fillColor=none;top=0;left=0;bottom=0;right=0;overflow=hidden;pointerEvents=1;strokeColor=inherit;fontSize=16;" vertex="1" parent="gvi6fdJPZBPUJMMH37WB-76">
          <mxGeometry width="27" height="30" as="geometry">
            <mxRectangle width="27" height="30" as="alternateBounds" />
          </mxGeometry>
        </mxCell>
        <mxCell id="gvi6fdJPZBPUJMMH37WB-78" value="var1" style="shape=partialRectangle;html=1;whiteSpace=wrap;connectable=0;fillColor=none;top=0;left=0;bottom=0;right=0;align=left;spacingLeft=6;overflow=hidden;strokeColor=inherit;fontSize=16;" vertex="1" parent="gvi6fdJPZBPUJMMH37WB-76">
          <mxGeometry x="27" width="93" height="30" as="geometry">
            <mxRectangle width="93" height="30" as="alternateBounds" />
          </mxGeometry>
        </mxCell>
        <mxCell id="gvi6fdJPZBPUJMMH37WB-79" value="" style="shape=tableRow;horizontal=0;startSize=0;swimlaneHead=0;swimlaneBody=0;top=0;left=0;bottom=0;right=0;collapsible=0;dropTarget=0;fillColor=none;points=[[0,0.5],[1,0.5]];portConstraint=eastwest;strokeColor=inherit;fontSize=16;" vertex="1" parent="gvi6fdJPZBPUJMMH37WB-75">
          <mxGeometry y="60" width="120" height="30" as="geometry" />
        </mxCell>
        <mxCell id="gvi6fdJPZBPUJMMH37WB-80" value="2" style="shape=partialRectangle;html=1;whiteSpace=wrap;connectable=0;fillColor=none;top=0;left=0;bottom=0;right=0;overflow=hidden;strokeColor=inherit;fontSize=16;" vertex="1" parent="gvi6fdJPZBPUJMMH37WB-79">
          <mxGeometry width="27" height="30" as="geometry">
            <mxRectangle width="27" height="30" as="alternateBounds" />
          </mxGeometry>
        </mxCell>
        <mxCell id="gvi6fdJPZBPUJMMH37WB-81" value="var2" style="shape=partialRectangle;html=1;whiteSpace=wrap;connectable=0;fillColor=none;top=0;left=0;bottom=0;right=0;align=left;spacingLeft=6;overflow=hidden;strokeColor=inherit;fontSize=16;" vertex="1" parent="gvi6fdJPZBPUJMMH37WB-79">
          <mxGeometry x="27" width="93" height="30" as="geometry">
            <mxRectangle width="93" height="30" as="alternateBounds" />
          </mxGeometry>
        </mxCell>
        <mxCell id="gvi6fdJPZBPUJMMH37WB-82" value="FunctionTwo" style="shape=table;startSize=30;container=1;collapsible=0;childLayout=tableLayout;fixedRows=1;rowLines=0;fontStyle=0;strokeColor=default;fontSize=16;" vertex="1" parent="gvi6fdJPZBPUJMMH37WB-74">
          <mxGeometry x="20" y="160" width="120" height="90" as="geometry" />
        </mxCell>
        <mxCell id="gvi6fdJPZBPUJMMH37WB-83" value="" style="shape=tableRow;horizontal=0;startSize=0;swimlaneHead=0;swimlaneBody=0;top=0;left=0;bottom=0;right=0;collapsible=0;dropTarget=0;fillColor=none;points=[[0,0.5],[1,0.5]];portConstraint=eastwest;strokeColor=inherit;fontSize=16;" vertex="1" parent="gvi6fdJPZBPUJMMH37WB-82">
          <mxGeometry y="30" width="120" height="30" as="geometry" />
        </mxCell>
        <mxCell id="gvi6fdJPZBPUJMMH37WB-84" value="1" style="shape=partialRectangle;html=1;whiteSpace=wrap;connectable=0;fillColor=none;top=0;left=0;bottom=0;right=0;overflow=hidden;pointerEvents=1;strokeColor=inherit;fontSize=16;" vertex="1" parent="gvi6fdJPZBPUJMMH37WB-83">
          <mxGeometry width="27" height="30" as="geometry">
            <mxRectangle width="27" height="30" as="alternateBounds" />
          </mxGeometry>
        </mxCell>
        <mxCell id="gvi6fdJPZBPUJMMH37WB-85" value="var1" style="shape=partialRectangle;html=1;whiteSpace=wrap;connectable=0;fillColor=none;top=0;left=0;bottom=0;right=0;align=left;spacingLeft=6;overflow=hidden;strokeColor=inherit;fontSize=16;" vertex="1" parent="gvi6fdJPZBPUJMMH37WB-83">
          <mxGeometry x="27" width="93" height="30" as="geometry">
            <mxRectangle width="93" height="30" as="alternateBounds" />
          </mxGeometry>
        </mxCell>
        <mxCell id="gvi6fdJPZBPUJMMH37WB-86" value="" style="shape=tableRow;horizontal=0;startSize=0;swimlaneHead=0;swimlaneBody=0;top=0;left=0;bottom=0;right=0;collapsible=0;dropTarget=0;fillColor=none;points=[[0,0.5],[1,0.5]];portConstraint=eastwest;strokeColor=inherit;fontSize=16;" vertex="1" parent="gvi6fdJPZBPUJMMH37WB-82">
          <mxGeometry y="60" width="120" height="30" as="geometry" />
        </mxCell>
        <mxCell id="gvi6fdJPZBPUJMMH37WB-87" value="2" style="shape=partialRectangle;html=1;whiteSpace=wrap;connectable=0;fillColor=none;top=0;left=0;bottom=0;right=0;overflow=hidden;strokeColor=inherit;fontSize=16;" vertex="1" parent="gvi6fdJPZBPUJMMH37WB-86">
          <mxGeometry width="27" height="30" as="geometry">
            <mxRectangle width="27" height="30" as="alternateBounds" />
          </mxGeometry>
        </mxCell>
        <mxCell id="gvi6fdJPZBPUJMMH37WB-88" value="var2" style="shape=partialRectangle;html=1;whiteSpace=wrap;connectable=0;fillColor=none;top=0;left=0;bottom=0;right=0;align=left;spacingLeft=6;overflow=hidden;strokeColor=inherit;fontSize=16;" vertex="1" parent="gvi6fdJPZBPUJMMH37WB-86">
          <mxGeometry x="27" width="93" height="30" as="geometry">
            <mxRectangle width="93" height="30" as="alternateBounds" />
          </mxGeometry>
        </mxCell>
        <mxCell id="gvi6fdJPZBPUJMMH37WB-89" value="FunctionThree" style="shape=table;startSize=30;container=1;collapsible=0;childLayout=tableLayout;fixedRows=1;rowLines=0;fontStyle=0;strokeColor=default;fontSize=16;" vertex="1" parent="gvi6fdJPZBPUJMMH37WB-74">
          <mxGeometry x="20" y="280" width="120" height="90" as="geometry" />
        </mxCell>
        <mxCell id="gvi6fdJPZBPUJMMH37WB-90" value="" style="shape=tableRow;horizontal=0;startSize=0;swimlaneHead=0;swimlaneBody=0;top=0;left=0;bottom=0;right=0;collapsible=0;dropTarget=0;fillColor=none;points=[[0,0.5],[1,0.5]];portConstraint=eastwest;strokeColor=inherit;fontSize=16;" vertex="1" parent="gvi6fdJPZBPUJMMH37WB-89">
          <mxGeometry y="30" width="120" height="30" as="geometry" />
        </mxCell>
        <mxCell id="gvi6fdJPZBPUJMMH37WB-91" value="1" style="shape=partialRectangle;html=1;whiteSpace=wrap;connectable=0;fillColor=none;top=0;left=0;bottom=0;right=0;overflow=hidden;pointerEvents=1;strokeColor=inherit;fontSize=16;" vertex="1" parent="gvi6fdJPZBPUJMMH37WB-90">
          <mxGeometry width="27" height="30" as="geometry">
            <mxRectangle width="27" height="30" as="alternateBounds" />
          </mxGeometry>
        </mxCell>
        <mxCell id="gvi6fdJPZBPUJMMH37WB-92" value="var1" style="shape=partialRectangle;html=1;whiteSpace=wrap;connectable=0;fillColor=none;top=0;left=0;bottom=0;right=0;align=left;spacingLeft=6;overflow=hidden;strokeColor=inherit;fontSize=16;" vertex="1" parent="gvi6fdJPZBPUJMMH37WB-90">
          <mxGeometry x="27" width="93" height="30" as="geometry">
            <mxRectangle width="93" height="30" as="alternateBounds" />
          </mxGeometry>
        </mxCell>
        <mxCell id="gvi6fdJPZBPUJMMH37WB-93" value="" style="shape=tableRow;horizontal=0;startSize=0;swimlaneHead=0;swimlaneBody=0;top=0;left=0;bottom=0;right=0;collapsible=0;dropTarget=0;fillColor=none;points=[[0,0.5],[1,0.5]];portConstraint=eastwest;strokeColor=inherit;fontSize=16;" vertex="1" parent="gvi6fdJPZBPUJMMH37WB-89">
          <mxGeometry y="60" width="120" height="30" as="geometry" />
        </mxCell>
        <mxCell id="gvi6fdJPZBPUJMMH37WB-94" value="2" style="shape=partialRectangle;html=1;whiteSpace=wrap;connectable=0;fillColor=none;top=0;left=0;bottom=0;right=0;overflow=hidden;strokeColor=inherit;fontSize=16;" vertex="1" parent="gvi6fdJPZBPUJMMH37WB-93">
          <mxGeometry width="27" height="30" as="geometry">
            <mxRectangle width="27" height="30" as="alternateBounds" />
          </mxGeometry>
        </mxCell>
        <mxCell id="gvi6fdJPZBPUJMMH37WB-95" value="var2" style="shape=partialRectangle;html=1;whiteSpace=wrap;connectable=0;fillColor=none;top=0;left=0;bottom=0;right=0;align=left;spacingLeft=6;overflow=hidden;strokeColor=inherit;fontSize=16;" vertex="1" parent="gvi6fdJPZBPUJMMH37WB-93">
          <mxGeometry x="27" width="93" height="30" as="geometry">
            <mxRectangle width="93" height="30" as="alternateBounds" />
          </mxGeometry>
        </mxCell>
        <mxCell id="gvi6fdJPZBPUJMMH37WB-96" value="" style="endArrow=classic;html=1;rounded=0;entryX=0.5;entryY=0;entryDx=0;entryDy=0;" edge="1" parent="gvi6fdJPZBPUJMMH37WB-74" source="gvi6fdJPZBPUJMMH37WB-75" target="gvi6fdJPZBPUJMMH37WB-82">
          <mxGeometry width="50" height="50" relative="1" as="geometry">
            <mxPoint x="-70" y="230" as="sourcePoint" />
            <mxPoint x="-20" y="180" as="targetPoint" />
          </mxGeometry>
        </mxCell>
        <mxCell id="gvi6fdJPZBPUJMMH37WB-97" value="" style="endArrow=classic;html=1;rounded=0;" edge="1" parent="gvi6fdJPZBPUJMMH37WB-74" source="gvi6fdJPZBPUJMMH37WB-82" target="gvi6fdJPZBPUJMMH37WB-89">
          <mxGeometry width="50" height="50" relative="1" as="geometry">
            <mxPoint x="-160" y="380" as="sourcePoint" />
            <mxPoint x="-110" y="330" as="targetPoint" />
          </mxGeometry>
        </mxCell>
      </root>
    </mxGraphModel>
  </diagram>
</mxfile>
